<svg width="80" height="77" viewBox="0 0 80 77" fill="none" xmlns="http://www.w3.org/2000/svg">
<path d="M3.28913 65.6486H7.80555V68.3854H3.28913V74.014H8.93466V76.7508H0V57.5413H8.93466V60.2782H3.28913V65.6486Z" fill="#000B39"/>
<path d="M14.4941 57.5413V72.2039C14.4941 72.8681 14.643 73.379 14.9409 73.6344C15.2387 73.8898 15.6854 74.0431 16.1818 74.0431C16.7278 74.0431 17.1249 73.8898 17.4227 73.6344C17.7205 73.379 17.8695 72.8681 17.8695 72.2039V57.5413H20.9966V71.9996C20.9966 73.5322 20.5995 74.7073 19.7557 75.5247C18.9118 76.3421 17.6709 76.7508 16.0825 76.7508C14.4941 76.7508 13.2036 76.3421 12.4094 75.5247C11.5656 74.7073 11.1685 73.5322 11.1685 71.9996V57.5413H14.4941Z" fill="#000B39"/>
<path d="M30.6597 76.7508C30.6098 76.6478 30.5599 76.4933 30.5599 76.3903C30.51 76.2873 30.4602 76.1328 30.4602 75.9783C30.4103 75.8238 30.4103 75.6178 30.4103 75.3603C30.4103 75.1028 30.4103 74.7938 30.4103 74.3818V71.3948C30.4103 70.5193 30.2607 69.8498 29.9115 69.4893C29.5624 69.1288 29.0137 68.9228 28.2655 68.9228H27.0186V76.6993H23.6768V57.5413H28.7144C30.4602 57.5413 31.7071 57.9018 32.4553 58.6228C33.2533 59.3438 33.6025 60.4768 33.6025 61.9188V63.4123C33.6025 65.3693 32.8543 66.6568 31.4078 67.2748C32.2558 67.5838 32.8543 68.0988 33.1536 68.7683C33.4528 69.4893 33.6025 70.3133 33.6025 71.3433V74.2788C33.6025 74.7423 33.6025 75.1543 33.6524 75.5148C33.7022 75.8753 33.802 76.2358 33.9516 76.5963H30.6597V76.7508ZM27.0186 60.3223V66.1933H28.3154C28.9638 66.1933 29.4127 66.0388 29.7619 65.7813C30.111 65.5238 30.3105 64.9573 30.3105 64.1848V62.2793C30.3105 61.6098 30.1609 61.0948 29.9115 60.7858C29.6621 60.4768 29.2132 60.3223 28.6147 60.3223H27.0186Z" fill="#000B39"/>
<path d="M35.7388 62.255C35.7388 60.7345 36.1767 59.5687 37.0038 58.7578C37.8309 57.9468 39.0473 57.5413 40.6528 57.5413C42.2584 57.5413 43.4748 57.9468 44.3019 58.7578C45.129 59.5687 45.5669 60.7345 45.5669 62.255V72.0372C45.5669 73.5577 45.129 74.7235 44.3019 75.5344C43.4748 76.3454 42.2584 76.7508 40.6528 76.7508C39.0473 76.7508 37.8309 76.3454 37.0038 75.5344C36.1767 74.7235 35.7388 73.5577 35.7388 72.0372V62.255ZM38.9499 72.2399C38.9499 72.8988 39.0959 73.4057 39.3878 73.6591C39.6798 73.9125 40.1176 74.0646 40.6042 74.0646C41.1394 74.0646 41.5286 73.9125 41.8205 73.6591C42.1125 73.4057 42.2584 72.8988 42.2584 72.2399V62.0523C42.2584 61.3934 42.1125 60.8865 41.8205 60.6331C41.5286 60.3797 41.0907 60.2276 40.6042 60.2276C40.069 60.2276 39.6798 60.3797 39.3878 60.6331C39.0959 60.8865 38.9499 61.3934 38.9499 62.0523V72.2399Z" fill="#000B39"/>
<path d="M46.9585 57.5413H57.6283V60.2782H54.0027V76.7508H50.5324V60.2782H46.9067V57.5413H46.9585Z" fill="#000B39"/>
<path d="M58.9688 57.5413H62.5426V76.7508H58.9688V57.5413Z" fill="#000B39"/>
<path d="M72.0262 71.1739L74.3237 57.5413H79.0718V76.7508H75.8553V62.9634L73.5068 76.7508H70.2903L67.7376 63.1699V76.7508H64.7764V57.5413H69.5245L72.0262 71.1739Z" fill="#000B39"/>
<path d="M0.124023 17.9639V10.42H47.3619V17.9639H0.124023ZM10.6045 33.0517H0.124023V25.5078H10.6551H28.9832H36.8815V33.0517H10.6045ZM21.0849 40.5956L47.3619 40.545V48.0889H0.124023V40.5956H21.0849Z" fill="#000B39"/>
<path d="M38.4004 10.42H69.4873V17.9639H57.7411V48.0889H50.1972V17.9639H38.4004V10.42Z" fill="#000B39"/>
<path d="M76.9806 10.42V48.0889H69.4873V10.42H76.9806Z" fill="#000B39"/>
<path d="M76.9806 0.850952V7.23035H69.4873V0.850952H76.9806Z" fill="#000B39"/>
<path d="M49.4378 49.7598H1.44043V41.5071L49.4378 41.4565V49.7598ZM2.14925 49.0004H48.6784V42.2159H23.1608V42.2665H2.14925V49.0004ZM38.9067 34.672H1.44043V26.4193H38.9067V34.672ZM2.14925 33.9632H38.1473V27.1281H2.14925V33.9632Z" fill="#0B8297"/>
<path d="M59.7664 49.7597H51.5136V19.6348H1.44043V11.3821H79.1071V49.7597H70.8037V19.6348H59.7664V49.7597ZM52.2225 49.0003H59.0069V18.8753H71.5126V49.0003H78.297V12.0909H2.14925V18.8753H52.2225V49.0003Z" fill="#0B8297"/>
<path d="M79.0564 8.90121H70.8037V1.81299H79.0564V8.90121ZM71.5632 8.14176H78.3476V2.52181H71.5632V8.14176Z" fill="#0B8297"/>
</svg>
